<svg xmlns="http://www.w3.org/2000/svg" class="wire-lang" viewBox="0 0 786 526" width="786" height="526" role="img" data-wire-lang-version="0.2.0">
<title>Bus-rail layout demo</title>
<desc>A sensor and LED driver around an MCU hub, drawn with top and bottom rails, a bundled sensor bus, colored control lines, and a button in the control band.</desc>
<style>.wire-lang { background: #ffffff; }
.wire-wire { stroke: #1f2937; stroke-width: 1.5; fill: none; stroke-linecap: round; stroke-linejoin: round; }
.wire-symbol { stroke: #1f2937; stroke-width: 1.5; fill: none; stroke-linecap: round; stroke-linejoin: round; }
.wire-symbol-bg { stroke: #1f2937; stroke-width: 1.5; fill: #ffffff; }
.wire-symbol-fill { fill: #1f2937; stroke: none; }
.wire-junction { fill: #1f2937; }
.wire-label { fill: #111827; font: 600 11px var(--wire-font, system-ui, sans-serif); }
.wire-pin-label { fill: #374151; font: 9px var(--wire-font, system-ui, sans-serif); }
.wire-net-label { fill: #2563eb; font: 600 10px var(--wire-font, system-ui, sans-serif); }
.wire-annotation { fill: #6b7280; font: italic 10px var(--wire-font, system-ui, sans-serif); }
.wire-lang { --wire-font: ui-monospace, SFMono-Regular, Menlo, monospace; }
.wire-rail-label { fill: #1f2937; font: 700 11px var(--wire-font, system-ui, sans-serif); }
.wire-bus-label { fill: #1f2937; font: 700 10px var(--wire-font, system-ui, sans-serif); }</style>
<rect class="wire-background" x="0" y="0" width="786" height="526" fill="#ffffff"/>
<g class="wire-wires"><g class="wire-net" data-wire-kind="net" data-wire-style="wire" data-wire-net="BTN"><path class="wire-wire" fill="none" d="M 332 254 L 326 254 A 4 4 0 0 1 318 254 L 308 254" style="stroke:#1d4ed8;stroke-width:1.4"/><line class="wire-wire" x1="308" y1="254" x2="308" y2="354" style="stroke:#1d4ed8;stroke-width:1.4"/></g><g class="wire-net" data-wire-kind="net" data-wire-style="wire" data-wire-net="LED_OUT"><line class="wire-wire" x1="690" y1="199" x2="714" y2="199" style="stroke:#475569;stroke-width:1.4"/><line class="wire-wire" x1="714" y1="199" x2="714" y2="354" style="stroke:#475569;stroke-width:1.4"/></g><g class="wire-net" data-wire-kind="net" data-wire-style="wire" data-wire-net="VCC"><line class="wire-wire" x1="50" y1="50" x2="614" y2="50" style="stroke:#c0392b;stroke-width:3"/><line class="wire-wire" x1="78" y1="177" x2="78" y2="50" style="stroke:#c0392b;stroke-width:3"/><line class="wire-wire" x1="332" y1="144" x2="332" y2="50" style="stroke:#c0392b;stroke-width:3"/><line class="wire-wire" x1="586" y1="166" x2="586" y2="50" style="stroke:#c0392b;stroke-width:3"/></g><g class="wire-net" data-wire-kind="net" data-wire-style="wire" data-wire-net="GND"><line class="wire-wire" x1="50" y1="482" x2="742" y2="482" style="stroke:#1f2937;stroke-width:3"/><line class="wire-wire" x1="78" y1="221" x2="78" y2="482" style="stroke:#1f2937;stroke-width:3"/><line class="wire-wire" x1="332" y1="166" x2="322" y2="166" style="stroke:#1f2937;stroke-width:3"/><line class="wire-wire" x1="322" y1="166" x2="322" y2="482" style="stroke:#1f2937;stroke-width:3"/><line class="wire-wire" x1="586" y1="188" x2="576" y2="188" style="stroke:#1f2937;stroke-width:3"/><line class="wire-wire" x1="576" y1="188" x2="576" y2="482" style="stroke:#1f2937;stroke-width:3"/><line class="wire-wire" x1="308" y1="418" x2="308" y2="482" style="stroke:#1f2937;stroke-width:3"/><line class="wire-wire" x1="714" y1="418" x2="714" y2="482" style="stroke:#1f2937;stroke-width:3"/></g><g class="wire-net" data-wire-kind="net" data-wire-style="wire" data-wire-net="SCL"><line class="wire-wire" x1="182" y1="177" x2="200" y2="177" style="stroke:#15803d;stroke-width:1.8"/><line class="wire-wire" x1="200" y1="177" x2="224" y2="204.5" style="stroke:#15803d;stroke-width:1.8"/><line class="wire-wire" x1="290" y1="204.5" x2="314" y2="188" style="stroke:#15803d;stroke-width:1.8"/><path class="wire-wire" fill="none" d="M 314 188 L 318 188 A 4 4 0 0 0 326 188 L 332 188" style="stroke:#15803d;stroke-width:1.8"/></g><g class="wire-net" data-wire-kind="net" data-wire-style="wire" data-wire-net="SDA"><line class="wire-wire" x1="182" y1="199" x2="200" y2="199" style="stroke:#15803d;stroke-width:1.8"/><line class="wire-wire" x1="200" y1="199" x2="224" y2="204.5" style="stroke:#15803d;stroke-width:1.8"/><line class="wire-wire" x1="290" y1="204.5" x2="314" y2="210" style="stroke:#15803d;stroke-width:1.8"/><path class="wire-wire" fill="none" d="M 314 210 L 318 210 A 4 4 0 0 0 326 210 L 332 210" style="stroke:#15803d;stroke-width:1.8"/></g><g class="wire-net" data-wire-kind="net" data-wire-style="wire" data-wire-net="INT"><line class="wire-wire" x1="182" y1="221" x2="200" y2="221" style="stroke:#15803d;stroke-width:1.8"/><line class="wire-wire" x1="200" y1="221" x2="224" y2="204.5" style="stroke:#15803d;stroke-width:1.8"/><line class="wire-wire" x1="290" y1="204.5" x2="314" y2="232" style="stroke:#15803d;stroke-width:1.8"/><path class="wire-wire" fill="none" d="M 314 232 L 318 232 A 4 4 0 0 0 326 232 L 332 232" style="stroke:#15803d;stroke-width:1.8"/></g><g class="wire-net" data-wire-kind="net" data-wire-style="wire" data-wire-net="U1-U2 bus"><line class="wire-wire" x1="224" y1="204.5" x2="290" y2="204.5" style="stroke:#15803d;stroke-width:4.5"/></g><g class="wire-net" data-wire-kind="net" data-wire-style="wire" data-wire-net="DRIVE"><line class="wire-wire" x1="436" y1="144" x2="511" y2="144" style="stroke:#475569;stroke-width:1.4"/><line class="wire-wire" x1="511" y1="144" x2="511" y2="210" style="stroke:#475569;stroke-width:1.4"/><path class="wire-wire" fill="none" d="M 511 210 L 572 210 A 4 4 0 0 0 580 210 L 586 210" style="stroke:#475569;stroke-width:1.4"/></g><g class="wire-net" data-wire-kind="net" data-wire-style="wire" data-wire-net="FAULT"><path class="wire-wire" fill="none" d="M 586 232 L 580 232 A 4 4 0 0 1 572 232 L 523 232" style="stroke:#475569;stroke-width:1.4"/><line class="wire-wire" x1="523" y1="232" x2="523" y2="254" style="stroke:#475569;stroke-width:1.4"/><line class="wire-wire" x1="523" y1="254" x2="436" y2="254" style="stroke:#475569;stroke-width:1.4"/></g></g>
<g class="wire-component" data-wire-kind="component" data-wire-id="U1" data-wire-type="IC" data-wire-symbol="ic" id="wire-component-U1"><rect class="wire-symbol-bg" x="92" y="161" width="76" height="76" rx="3"/><line class="wire-symbol" x1="78" y1="177" x2="92" y2="177"/><text class="wire-pin-label" x="98" y="180" text-anchor="start">VCC</text><text class="wire-pin-label" x="88" y="173" text-anchor="end">1</text><line class="wire-symbol" x1="78" y1="221" x2="92" y2="221"/><text class="wire-pin-label" x="98" y="224" text-anchor="start">GND</text><text class="wire-pin-label" x="88" y="217" text-anchor="end">2</text><line class="wire-symbol" x1="182" y1="177" x2="168" y2="177"/><text class="wire-pin-label" x="162" y="180" text-anchor="end">SCL</text><text class="wire-pin-label" x="172" y="173" text-anchor="start">3</text><line class="wire-symbol" x1="182" y1="199" x2="168" y2="199"/><text class="wire-pin-label" x="162" y="202" text-anchor="end">SDA</text><text class="wire-pin-label" x="172" y="195" text-anchor="start">4</text><line class="wire-symbol" x1="182" y1="221" x2="168" y2="221"/><text class="wire-pin-label" x="162" y="224" text-anchor="end">INT</text><text class="wire-pin-label" x="172" y="217" text-anchor="start">5</text><text class="wire-label" x="130" y="141" text-anchor="middle">U1</text></g><g class="wire-component" data-wire-kind="component" data-wire-id="U2" data-wire-type="IC" data-wire-symbol="ic" id="wire-component-U2"><rect class="wire-symbol-bg" x="346" y="128" width="76" height="142" rx="3"/><line class="wire-symbol" x1="332" y1="144" x2="346" y2="144"/><text class="wire-pin-label" x="352" y="147" text-anchor="start">3V3</text><text class="wire-pin-label" x="342" y="140" text-anchor="end">1</text><line class="wire-symbol" x1="332" y1="166" x2="346" y2="166"/><text class="wire-pin-label" x="352" y="169" text-anchor="start">GND</text><text class="wire-pin-label" x="342" y="162" text-anchor="end">2</text><line class="wire-symbol" x1="332" y1="188" x2="346" y2="188"/><text class="wire-pin-label" x="352" y="191" text-anchor="start">SCL</text><text class="wire-pin-label" x="342" y="184" text-anchor="end">3</text><line class="wire-symbol" x1="332" y1="210" x2="346" y2="210"/><text class="wire-pin-label" x="352" y="213" text-anchor="start">SDA</text><text class="wire-pin-label" x="342" y="206" text-anchor="end">4</text><line class="wire-symbol" x1="332" y1="232" x2="346" y2="232"/><text class="wire-pin-label" x="352" y="235" text-anchor="start">IRQ</text><text class="wire-pin-label" x="342" y="228" text-anchor="end">5</text><line class="wire-symbol" x1="332" y1="254" x2="346" y2="254"/><text class="wire-pin-label" x="352" y="257" text-anchor="start">BTN</text><text class="wire-pin-label" x="342" y="250" text-anchor="end">6</text><line class="wire-symbol" x1="436" y1="144" x2="422" y2="144"/><text class="wire-pin-label" x="416" y="147" text-anchor="end">DRIVE</text><text class="wire-pin-label" x="426" y="140" text-anchor="start">7</text><line class="wire-symbol" x1="436" y1="254" x2="422" y2="254"/><text class="wire-pin-label" x="416" y="257" text-anchor="end">FAULT</text><text class="wire-pin-label" x="426" y="250" text-anchor="start">8</text><text class="wire-label" x="384" y="108" text-anchor="middle">U2</text></g><g class="wire-component" data-wire-kind="component" data-wire-id="U3" data-wire-type="IC" data-wire-symbol="ic" id="wire-component-U3"><rect class="wire-symbol-bg" x="600" y="150" width="76" height="98" rx="3"/><line class="wire-symbol" x1="586" y1="166" x2="600" y2="166"/><text class="wire-pin-label" x="606" y="169" text-anchor="start">VIN</text><text class="wire-pin-label" x="596" y="162" text-anchor="end">1</text><line class="wire-symbol" x1="586" y1="188" x2="600" y2="188"/><text class="wire-pin-label" x="606" y="191" text-anchor="start">GND</text><text class="wire-pin-label" x="596" y="184" text-anchor="end">2</text><line class="wire-symbol" x1="586" y1="210" x2="600" y2="210"/><text class="wire-pin-label" x="606" y="213" text-anchor="start">IN</text><text class="wire-pin-label" x="596" y="206" text-anchor="end">3</text><line class="wire-symbol" x1="586" y1="232" x2="600" y2="232"/><text class="wire-pin-label" x="606" y="235" text-anchor="start">FAULT</text><text class="wire-pin-label" x="596" y="228" text-anchor="end">4</text><line class="wire-symbol" x1="690" y1="199" x2="676" y2="199"/><text class="wire-pin-label" x="670" y="202" text-anchor="end">OUT</text><text class="wire-pin-label" x="680" y="195" text-anchor="start">5</text><text class="wire-label" x="638" y="130" text-anchor="middle">U3</text></g><g class="wire-component" data-wire-kind="component" data-wire-id="SW1" data-wire-type="PushButton" data-wire-symbol="push-button" id="wire-component-SW1"><path class="wire-symbol" fill="none" d="M 308 354 L 308 378"/><path class="wire-symbol" fill="none" d="M 308 394 L 308 418"/><circle class="wire-symbol-fill" cx="308" cy="378" r="1.6"/><circle class="wire-symbol-fill" cx="308" cy="394" r="1.6"/><line class="wire-symbol" x1="319" y1="378" x2="319" y2="394"/><path class="wire-symbol" fill="none" d="M 319 386 L 325 386"/><text class="wire-label" x="325" y="390" text-anchor="start">SW1</text></g><g class="wire-component" data-wire-kind="component" data-wire-id="D1" data-wire-type="LED" data-wire-symbol="led" id="wire-component-D1"><path class="wire-symbol" fill="none" d="M 714 354 L 714 379"/><path class="wire-symbol" fill="none" d="M 714 393 L 714 418"/><polygon class="wire-symbol-fill" points="722,379 706,379 714,393" fill="#22c55e"/><line class="wire-symbol" x1="722" y1="393" x2="706" y2="393"/><path class="wire-symbol" fill="none" d="M 724 386 L 727.09 388.06"/><polygon class="wire-symbol-fill" points="730,390 725.87,389.89 728.31,386.23"/><path class="wire-symbol" fill="none" d="M 722 390 L 725.09 392.06"/><polygon class="wire-symbol-fill" points="728,394 723.87,393.89 726.31,390.23"/><text class="wire-label" x="731" y="390" text-anchor="start">D1</text></g>
<g class="wire-junctions"><circle class="wire-junction" cx="78" cy="50" r="2.8"/><circle class="wire-junction" cx="332" cy="50" r="2.8"/><circle class="wire-junction" cx="586" cy="50" r="2.8"/><circle class="wire-junction" cx="78" cy="482" r="2.8"/><circle class="wire-junction" cx="322" cy="482" r="2.8"/><circle class="wire-junction" cx="576" cy="482" r="2.8"/><circle class="wire-junction" cx="308" cy="482" r="2.8"/><circle class="wire-junction" cx="714" cy="482" r="2.8"/></g>
<g class="wire-labels"><text class="wire-rail-label" x="44" y="44" text-anchor="start" style="fill:#c0392b">VCC</text><text class="wire-rail-label" x="44" y="476" text-anchor="start" style="fill:#1f2937">GND</text><text class="wire-bus-label" x="257" y="192.5" text-anchor="middle" style="fill:#15803d">U1-U2 bus</text></g>
</svg>