<svg xmlns="http://www.w3.org/2000/svg" class="wire-lang" viewBox="0 0 748 206" width="748" height="206" role="img" data-wire-lang-version="0.2.0">
<title>Diode variants</title>
<desc>A Schottky rectifier feeds a node clamped by a Zener, plus a photodiode sense leg.</desc>
<style>.wire-lang { background: #ffffff; }
.wire-wire { stroke: #1f2937; stroke-width: 1.5; fill: none; stroke-linecap: round; stroke-linejoin: round; }
.wire-symbol { stroke: #1f2937; stroke-width: 1.5; fill: none; stroke-linecap: round; stroke-linejoin: round; }
.wire-symbol-bg { stroke: #1f2937; stroke-width: 1.5; fill: #ffffff; }
.wire-symbol-fill { fill: #1f2937; stroke: none; }
.wire-junction { fill: #1f2937; }
.wire-label { fill: #111827; font: 600 11px var(--wire-font, system-ui, sans-serif); }
.wire-pin-label { fill: #374151; font: 9px var(--wire-font, system-ui, sans-serif); }
.wire-net-label { fill: #2563eb; font: 600 10px var(--wire-font, system-ui, sans-serif); }
.wire-annotation { fill: #6b7280; font: italic 10px var(--wire-font, system-ui, sans-serif); }</style>
<rect class="wire-background" x="0" y="0" width="748" height="206" fill="#ffffff"/>
<g class="wire-wires"><g class="wire-net" data-wire-kind="net" data-wire-style="wire" data-wire-net="VIN"><line class="wire-wire" x1="54" y1="62" x2="124" y2="62"/><line class="wire-wire" x1="54" y1="88" x2="54" y2="62"/><line class="wire-wire" x1="124" y1="103" x2="124" y2="62"/></g><g class="wire-net" data-wire-kind="net" data-wire-style="wire" data-wire-net="NODE"><line class="wire-wire" x1="188" y1="144" x2="472" y2="144"/><line class="wire-wire" x1="188" y1="103" x2="188" y2="144"/><line class="wire-wire" x1="304" y1="103" x2="304" y2="144"/><line class="wire-wire" x1="472" y1="103" x2="472" y2="144"/></g><g class="wire-net" data-wire-kind="net" data-wire-style="wire" data-wire-net="GNDZ"><line class="wire-wire" x1="240" y1="62" x2="606" y2="62"/><line class="wire-wire" x1="240" y1="103" x2="240" y2="62"/><line class="wire-wire" x1="606" y1="88" x2="606" y2="62"/></g><g class="wire-net" data-wire-kind="net" data-wire-style="wire" data-wire-net="SENSE"><line class="wire-wire" x1="356" y1="170" x2="536" y2="170"/><line class="wire-wire" x1="536" y1="103" x2="536" y2="170"/><line class="wire-wire" x1="356" y1="103" x2="356" y2="170"/></g><g class="wire-net" data-wire-kind="net" data-wire-style="wire" data-wire-net="GNDP"><line class="wire-wire" x1="420" y1="36" x2="694" y2="36"/><line class="wire-wire" x1="420" y1="103" x2="420" y2="36"/><line class="wire-wire" x1="694" y1="88" x2="694" y2="36"/></g></g>
<g class="wire-component" data-wire-kind="component" data-wire-id="PWR1" data-wire-type="PowerFlag" data-wire-symbol="power-flag" id="wire-component-PWR1"><path class="wire-symbol" fill="none" d="M 54 110.5 L 54 91.5"/><polygon class="wire-symbol-fill" points="54,88 56.2,91.5 51.8,91.5"/><text class="wire-label" x="54" y="116.5" text-anchor="middle">5V</text></g><g class="wire-component" data-wire-kind="component" data-wire-id="D1" data-wire-type="SchottkyDiode" data-wire-symbol="schottky-diode" id="wire-component-D1"><path class="wire-symbol" fill="none" d="M 124 103 L 149 103"/><path class="wire-symbol" fill="none" d="M 163 103 L 188 103"/><polygon class="wire-symbol-fill" points="149,95 149,111 163,103" fill="#1f2937"/><path class="wire-symbol" fill="none" d="M 167 99 L 167 95 L 163 95 L 163 111 L 159 111 L 159 107"/><text class="wire-label" x="156" y="86" text-anchor="middle">D1</text></g><g class="wire-component" data-wire-kind="component" data-wire-id="D2" data-wire-type="ZenerDiode" data-wire-symbol="zener-diode" id="wire-component-D2"><path class="wire-symbol" fill="none" d="M 240 103 L 265 103"/><path class="wire-symbol" fill="none" d="M 279 103 L 304 103"/><polygon class="wire-symbol-fill" points="265,95 265,111 279,103" fill="#1f2937"/><path class="wire-symbol" fill="none" d="M 275 95 L 279 95 L 279 111 L 283 111"/><text class="wire-label" x="272" y="86" text-anchor="middle">D2</text></g><g class="wire-component" data-wire-kind="component" data-wire-id="D3" data-wire-type="Photodiode" data-wire-symbol="photodiode" id="wire-component-D3"><path class="wire-symbol" fill="none" d="M 356 103 L 381 103"/><path class="wire-symbol" fill="none" d="M 395 103 L 420 103"/><polygon class="wire-symbol-fill" points="381,95 381,111 395,103" fill="#1f2937"/><line class="wire-symbol" x1="395" y1="95" x2="395" y2="111"/><path class="wire-symbol" fill="none" d="M 392 87 L 389.94 90.09"/><polygon class="wire-symbol-fill" points="388,93 388.11,88.87 391.77,91.31"/><path class="wire-symbol" fill="none" d="M 396 89 L 393.94 92.09"/><polygon class="wire-symbol-fill" points="392,95 392.11,90.87 395.77,93.31"/><text class="wire-label" x="388" y="86" text-anchor="middle">D3</text></g><g class="wire-component" data-wire-kind="component" data-wire-id="R1" data-wire-type="Resistor" data-wire-symbol="resistor" id="wire-component-R1"><path class="wire-symbol" fill="none" d="M 472 103 L 486 103 L 489 96 L 495 110 L 501 96 L 507 110 L 513 96 L 519 110 L 522 103 L 536 103"/><text class="wire-label" x="504" y="86" text-anchor="middle">R1</text><text class="wire-label" x="504" y="73" text-anchor="middle">1k</text></g><g class="wire-component" data-wire-kind="component" data-wire-id="G1" data-wire-type="GroundReference" data-wire-symbol="ground-reference" id="wire-component-G1"><path class="wire-symbol" fill="none" d="M 606 88 L 606 94.75"/><line class="wire-symbol" x1="618" y1="94.75" x2="594" y2="94.75"/><line class="wire-symbol" x1="614" y1="98.2" x2="598" y2="98.2"/><line class="wire-symbol" x1="610" y1="101.5" x2="602" y2="101.5"/></g><g class="wire-component" data-wire-kind="component" data-wire-id="G2" data-wire-type="GroundReference" data-wire-symbol="ground-reference" id="wire-component-G2"><path class="wire-symbol" fill="none" d="M 694 88 L 694 94.75"/><line class="wire-symbol" x1="706" y1="94.75" x2="682" y2="94.75"/><line class="wire-symbol" x1="702" y1="98.2" x2="686" y2="98.2"/><line class="wire-symbol" x1="698" y1="101.5" x2="690" y2="101.5"/></g>
<g class="wire-junctions"><circle class="wire-junction" cx="304" cy="144" r="2.8"/></g>
<g class="wire-labels"><text class="wire-annotation" x="272" y="63" text-anchor="middle">Zener clamp</text></g>
</svg>