<svg xmlns="http://www.w3.org/2000/svg" class="wire-lang" viewBox="0 0 1528 301" width="1528" height="301" role="img" data-wire-lang-version="0.1.0">
<title>Switched RLC bench demo</title>
<desc>A switched 9V rail feeds an RLC network, a PNP low-side driver and an amber LED, with a filtered output header. Exercises every standard symbol.</desc>
<style>.wire-lang { background: #ffffff; }
.wire-wire { stroke: #1f2937; stroke-width: 1.5; fill: none; stroke-linecap: round; stroke-linejoin: round; }
.wire-symbol { stroke: #1f2937; stroke-width: 1.5; fill: none; stroke-linecap: round; stroke-linejoin: round; }
.wire-symbol-bg { stroke: #1f2937; stroke-width: 1.5; fill: #ffffff; }
.wire-symbol-fill { fill: #1f2937; stroke: none; }
.wire-junction { fill: #1f2937; }
.wire-label { fill: #111827; font: 600 11px var(--wire-font, system-ui, sans-serif); }
.wire-pin-label { fill: #374151; font: 9px var(--wire-font, system-ui, sans-serif); }
.wire-net-label { fill: #2563eb; font: 600 10px var(--wire-font, system-ui, sans-serif); }
.wire-annotation { fill: #6b7280; font: italic 10px var(--wire-font, system-ui, sans-serif); }</style>
<rect class="wire-background" x="0" y="0" width="1528" height="301" fill="#ffffff"/>
<g class="wire-wires"><g class="wire-net" data-wire-kind="net" data-wire-style="wire" data-wire-net="VIN"><line class="wire-wire" x1="36" y1="135" x2="268" y2="135"/><line class="wire-wire" x1="36" y1="87" x2="36" y2="135"/><line class="wire-wire" x1="152" y1="87" x2="152" y2="135"/><line class="wire-wire" x1="268" y1="87" x2="268" y2="135"/></g><g class="wire-net" data-wire-kind="net" data-wire-style="wire" data-wire-net="RAIL"><line class="wire-wire" x1="216" y1="161" x2="1319" y2="161"/><line class="wire-wire" x1="216" y1="87" x2="216" y2="161"/><line class="wire-wire" x1="332" y1="87" x2="332" y2="161"/><line class="wire-wire" x1="384" y1="87" x2="384" y2="161"/><line class="wire-wire" x1="616" y1="87" x2="616" y2="161"/><line class="wire-wire" x1="964" y1="87" x2="964" y2="161"/><line class="wire-wire" x1="1319" y1="109" x2="1319" y2="161"/></g><g class="wire-net" data-wire-kind="net" data-wire-style="wire" data-wire-net="MID"><line class="wire-wire" x1="448" y1="187" x2="1113.48" y2="187"/><line class="wire-wire" x1="448" y1="87" x2="448" y2="187"/><line class="wire-wire" x1="500" y1="87" x2="500" y2="187"/><line class="wire-wire" x1="732" y1="87" x2="732" y2="187"/><line class="wire-wire" x1="1113.48" y1="109" x2="1113.48" y2="187"/></g><g class="wire-net" data-wire-kind="net" data-wire-style="wire"><line class="wire-wire" x1="564" y1="213" x2="1080" y2="213"/><line class="wire-wire" x1="564" y1="87" x2="564" y2="213"/><line class="wire-wire" x1="848" y1="87" x2="848" y2="213"/><line class="wire-wire" x1="1080" y1="87" x2="1080" y2="213"/></g><g class="wire-net" data-wire-kind="net" data-wire-style="wire" data-wire-net="SIG"><line class="wire-wire" x1="796" y1="239" x2="1353" y2="239"/><line class="wire-wire" x1="796" y1="87" x2="796" y2="239"/><line class="wire-wire" x1="912" y1="87" x2="912" y2="239"/><line class="wire-wire" x1="1113.48" y1="65" x2="1113.48" y2="239"/><line class="wire-wire" x1="1186" y1="87" x2="1186" y2="239"/><line class="wire-wire" x1="1353" y1="109" x2="1353" y2="239"/></g><g class="wire-net" data-wire-kind="net" data-wire-style="wire" data-wire-net="GND"><line class="wire-wire" x1="100" y1="265" x2="1474" y2="265"/><line class="wire-wire" x1="100" y1="87" x2="100" y2="265"/><line class="wire-wire" x1="680" y1="87" x2="680" y2="265"/><line class="wire-wire" x1="1028" y1="87" x2="1028" y2="265"/><line class="wire-wire" x1="1250" y1="87" x2="1250" y2="265"/><line class="wire-wire" x1="1387" y1="109" x2="1387" y2="265"/><line class="wire-wire" x1="1474" y1="72" x2="1474" y2="265"/></g></g>
<g class="wire-component" data-wire-kind="component" data-wire-id="BT1" data-wire-type="Battery" data-wire-symbol="battery" id="wire-component-BT1"><path class="wire-symbol" fill="none" d="M 36 87 L 61 87"/><path class="wire-symbol" fill="none" d="M 75 87 L 100 87"/><line class="wire-symbol" x1="61" y1="76" x2="61" y2="98"/><line class="wire-symbol" x1="65" y1="81" x2="65" y2="93"/><line class="wire-symbol" x1="71" y1="76" x2="71" y2="98"/><line class="wire-symbol" x1="75" y1="81" x2="75" y2="93"/><text class="wire-label" x="68" y="70" text-anchor="middle">BT1</text><text class="wire-label" x="68" y="57" text-anchor="middle">9V</text></g><g class="wire-component" data-wire-kind="component" data-wire-id="SW1" data-wire-type="SPSTSwitch" data-wire-symbol="spst-switch" id="wire-component-SW1"><path class="wire-symbol" fill="none" d="M 152 87 L 176 87"/><path class="wire-symbol" fill="none" d="M 192 87 L 216 87"/><circle class="wire-symbol-fill" cx="176" cy="87" r="1.6"/><circle class="wire-symbol-fill" cx="192" cy="87" r="1.6"/><path class="wire-symbol" fill="none" d="M 176 87 L 191 77"/><text class="wire-label" x="184" y="70" text-anchor="middle">SW1</text></g><g class="wire-component" data-wire-kind="component" data-wire-id="BTN1" data-wire-type="PushButton" data-wire-symbol="push-button" id="wire-component-BTN1"><path class="wire-symbol" fill="none" d="M 268 87 L 292 87"/><path class="wire-symbol" fill="none" d="M 308 87 L 332 87"/><circle class="wire-symbol-fill" cx="292" cy="87" r="1.6"/><circle class="wire-symbol-fill" cx="308" cy="87" r="1.6"/><line class="wire-symbol" x1="292" y1="76" x2="308" y2="76"/><path class="wire-symbol" fill="none" d="M 300 76 L 300 70"/><text class="wire-label" x="300" y="70" text-anchor="middle">BTN1</text></g><g class="wire-component" data-wire-kind="component" data-wire-id="L1" data-wire-type="Inductor" data-wire-symbol="inductor" id="wire-component-L1"><path class="wire-symbol" fill="none" d="M 384 87 L 398 87 L 398 87 L 398.34 85.28 L 399.32 83.82 L 400.78 82.84 L 402.5 82.5 L 404.22 82.84 L 405.68 83.82 L 406.66 85.28 L 407 87 L 407 87 L 407.34 85.28 L 408.32 83.82 L 409.78 82.84 L 411.5 82.5 L 413.22 82.84 L 414.68 83.82 L 415.66 85.28 L 416 87 L 416 87 L 416.34 85.28 L 417.32 83.82 L 418.78 82.84 L 420.5 82.5 L 422.22 82.84 L 423.68 83.82 L 424.66 85.28 L 425 87 L 425 87 L 425.34 85.28 L 426.32 83.82 L 427.78 82.84 L 429.5 82.5 L 431.22 82.84 L 432.68 83.82 L 433.66 85.28 L 434 87 L 434 87 L 448 87"/><text class="wire-label" x="416" y="70" text-anchor="middle">L1</text><text class="wire-label" x="416" y="57" text-anchor="middle">10mH</text></g><g class="wire-component" data-wire-kind="component" data-wire-id="D1" data-wire-type="Diode" data-wire-symbol="diode" id="wire-component-D1"><path class="wire-symbol" fill="none" d="M 500 87 L 525 87"/><path class="wire-symbol" fill="none" d="M 539 87 L 564 87"/><polygon class="wire-symbol-fill" points="525,79 525,95 539,87" fill="#1f2937"/><line class="wire-symbol" x1="539" y1="79" x2="539" y2="95"/><text class="wire-label" x="532" y="70" text-anchor="middle">D1</text></g><g class="wire-component" data-wire-kind="component" data-wire-id="R1" data-wire-type="Resistor" data-wire-symbol="resistor" id="wire-component-R1"><path class="wire-symbol" fill="none" d="M 616 87 L 630 87 L 633 80 L 639 94 L 645 80 L 651 94 L 657 80 L 663 94 L 666 87 L 680 87"/><text class="wire-label" x="648" y="70" text-anchor="middle">R1</text><text class="wire-label" x="648" y="57" text-anchor="middle">1k</text></g><g class="wire-component" data-wire-kind="component" data-wire-id="R2" data-wire-type="Resistor" data-wire-symbol="resistor" id="wire-component-R2"><path class="wire-symbol" fill="none" d="M 732 87 L 746 87 L 749 80 L 755 94 L 761 80 L 767 94 L 773 80 L 779 94 L 782 87 L 796 87"/><text class="wire-label" x="764" y="70" text-anchor="middle">R2</text><text class="wire-label" x="764" y="57" text-anchor="middle">4k7</text></g><g class="wire-component" data-wire-kind="component" data-wire-id="C1" data-wire-type="Capacitor" data-wire-symbol="capacitor" id="wire-component-C1"><path class="wire-symbol" fill="none" d="M 848 87 L 877 87"/><path class="wire-symbol" fill="none" d="M 883 87 L 912 87"/><line class="wire-symbol" x1="877" y1="77" x2="877" y2="97"/><line class="wire-symbol" x1="883" y1="77" x2="883" y2="97"/><text class="wire-label" x="880" y="70" text-anchor="middle">C1</text><text class="wire-label" x="880" y="57" text-anchor="middle">100nF</text></g><g class="wire-component" data-wire-kind="component" data-wire-id="C2" data-wire-type="PolarizedCapacitor" data-wire-symbol="polarized-capacitor" id="wire-component-C2"><path class="wire-symbol" fill="none" d="M 964 87 L 993 87"/><path class="wire-symbol" fill="none" d="M 999 87 L 1028 87"/><line class="wire-symbol" x1="993" y1="77" x2="993" y2="97"/><path class="wire-symbol" fill="none" d="M 999 79 L 1002 82 L 1002 92 L 999 95"/><text class="wire-pin-label" x="988" y="76" text-anchor="middle">+</text><text class="wire-label" x="996" y="70" text-anchor="middle">C2</text><text class="wire-label" x="996" y="57" text-anchor="middle">10uF</text></g><g class="wire-component" data-wire-kind="component" data-wire-id="Q1" data-wire-type="PNPTransistor" data-wire-symbol="pnp-transistor" id="wire-component-Q1"><circle class="wire-symbol-bg" cx="1107" cy="87" r="17"/><line class="wire-symbol" x1="1080" y1="87" x2="1097" y2="87"/><line class="wire-symbol" x1="1114.65" y1="78" x2="1114.65" y2="96"/><line class="wire-symbol" x1="1108.68" y1="81.31" x2="1114.65" y2="82"/><line class="wire-symbol" x1="1108.68" y1="92.69" x2="1114.65" y2="92"/><line class="wire-symbol" x1="1113.48" y1="65" x2="1108.68" y2="81.31"/><line class="wire-symbol" x1="1113.48" y1="109" x2="1108.68" y2="92.69"/><polygon class="wire-symbol-fill" points="1114.65,92 1108.34,89.71 1109.04,95.67"/><text class="wire-label" x="1107" y="59" text-anchor="middle">Q1</text></g><g class="wire-component" data-wire-kind="component" data-wire-id="D2" data-wire-type="LED" data-wire-symbol="led" id="wire-component-D2"><path class="wire-symbol" fill="none" d="M 1186 87 L 1211 87"/><path class="wire-symbol" fill="none" d="M 1225 87 L 1250 87"/><polygon class="wire-symbol-fill" points="1211,79 1211,95 1225,87" fill="#f59e0b"/><line class="wire-symbol" x1="1225" y1="79" x2="1225" y2="95"/><path class="wire-symbol" fill="none" d="M 1218 77 L 1220.06 73.91"/><polygon class="wire-symbol-fill" points="1222,71 1221.89,75.13 1218.23,72.69"/><path class="wire-symbol" fill="none" d="M 1222 79 L 1224.06 75.91"/><polygon class="wire-symbol-fill" points="1226,73 1225.89,77.13 1222.23,74.69"/><text class="wire-label" x="1218" y="70" text-anchor="middle">D2</text></g><g class="wire-component" data-wire-kind="component" data-wire-id="J1" data-wire-type="Header" data-wire-symbol="module" id="wire-component-J1"><rect class="wire-symbol-bg" x="1302" y="65" width="102" height="44" rx="3"/><line class="wire-symbol" x1="1319" y1="109" x2="1327" y2="109"/><text class="wire-pin-label" x="1327" y="112" text-anchor="middle">VBUS</text><line class="wire-symbol" x1="1353" y1="109" x2="1353" y2="101"/><text class="wire-pin-label" x="1353" y="98" text-anchor="middle">SIG</text><line class="wire-symbol" x1="1387" y1="109" x2="1379" y2="109"/><text class="wire-pin-label" x="1379" y="112" text-anchor="middle">GND</text><text class="wire-label" x="1353" y="59" text-anchor="middle">J1</text></g><g class="wire-component" data-wire-kind="component" data-wire-id="G1" data-wire-type="GroundReference" data-wire-symbol="ground-reference" id="wire-component-G1"><path class="wire-symbol" fill="none" d="M 1474 72 L 1474 78.75"/><line class="wire-symbol" x1="1486" y1="78.75" x2="1462" y2="78.75"/><line class="wire-symbol" x1="1482" y1="82.2" x2="1466" y2="82.2"/><line class="wire-symbol" x1="1478" y1="85.5" x2="1470" y2="85.5"/></g>
<g class="wire-junctions"><circle class="wire-junction" cx="152" cy="135" r="2.8"/><circle class="wire-junction" cx="332" cy="161" r="2.8"/><circle class="wire-junction" cx="384" cy="161" r="2.8"/><circle class="wire-junction" cx="616" cy="161" r="2.8"/><circle class="wire-junction" cx="964" cy="161" r="2.8"/><circle class="wire-junction" cx="500" cy="187" r="2.8"/><circle class="wire-junction" cx="732" cy="187" r="2.8"/><circle class="wire-junction" cx="848" cy="213" r="2.8"/><circle class="wire-junction" cx="912" cy="239" r="2.8"/><circle class="wire-junction" cx="1113.48" cy="239" r="2.8"/><circle class="wire-junction" cx="1186" cy="239" r="2.8"/><circle class="wire-junction" cx="680" cy="265" r="2.8"/><circle class="wire-junction" cx="1028" cy="265" r="2.8"/><circle class="wire-junction" cx="1250" cy="265" r="2.8"/><circle class="wire-junction" cx="1387" cy="265" r="2.8"/></g>
<g class="wire-labels"><text class="wire-annotation" x="1107" y="36" text-anchor="middle">PNP low-side driver</text><text class="wire-annotation" x="1074.5" y="251" text-anchor="middle">Output filter</text></g>
</svg>