<svg xmlns="http://www.w3.org/2000/svg" class="wire-lang" viewBox="0 0 798 277" width="798" height="277" role="img" data-wire-lang-version="0.1.0">
<title>NPN LED driver</title>
<desc>An NPN transistor switches a green LED from a 9V supply, driven through a base resistor.</desc>
<style>.wire-lang { background: #ffffff; }
.wire-wire { stroke: #1f2937; stroke-width: 1.5; fill: none; stroke-linecap: round; stroke-linejoin: round; }
.wire-symbol { stroke: #1f2937; stroke-width: 1.5; fill: none; stroke-linecap: round; stroke-linejoin: round; }
.wire-symbol-bg { stroke: #1f2937; stroke-width: 1.5; fill: #ffffff; }
.wire-symbol-fill { fill: #1f2937; stroke: none; }
.wire-junction { fill: #1f2937; }
.wire-label { fill: #111827; font: 600 11px var(--wire-font, system-ui, sans-serif); }
.wire-pin-label { fill: #374151; font: 9px var(--wire-font, system-ui, sans-serif); }
.wire-net-label { fill: #2563eb; font: 600 10px var(--wire-font, system-ui, sans-serif); }
.wire-annotation { fill: #6b7280; font: italic 10px var(--wire-font, system-ui, sans-serif); }</style>
<rect class="wire-background" x="0" y="0" width="798" height="277" fill="#ffffff"/>
<g class="wire-wires"><g class="wire-net" data-wire-kind="net" data-wire-style="wire" data-wire-net="VCC"><line class="wire-wire" x1="36" y1="137" x2="268" y2="137"/><line class="wire-wire" x1="36" y1="89" x2="36" y2="137"/><line class="wire-wire" x1="268" y1="89" x2="268" y2="137"/></g><g class="wire-net" data-wire-kind="net" data-wire-style="wire" data-wire-net="LEDK"><line class="wire-wire" x1="332" y1="163" x2="490" y2="163"/><line class="wire-wire" x1="332" y1="89" x2="332" y2="163"/><line class="wire-wire" x1="490" y1="89" x2="490" y2="163"/></g><g class="wire-net" data-wire-kind="net" data-wire-style="wire"><line class="wire-wire" x1="417.48" y1="41" x2="554" y2="41"/><line class="wire-wire" x1="554" y1="89" x2="554" y2="41"/><line class="wire-wire" x1="417.48" y1="67" x2="417.48" y2="41"/></g><g class="wire-net" data-wire-kind="net" data-wire-style="wire" data-wire-net="BASE"><line class="wire-wire" x1="152" y1="189" x2="623" y2="189"/><line class="wire-wire" x1="623" y1="111" x2="623" y2="189"/><line class="wire-wire" x1="152" y1="89" x2="152" y2="189"/></g><g class="wire-net" data-wire-kind="net" data-wire-style="wire"><line class="wire-wire" x1="216" y1="215" x2="384" y2="215"/><line class="wire-wire" x1="216" y1="89" x2="216" y2="215"/><line class="wire-wire" x1="384" y1="89" x2="384" y2="215"/></g><g class="wire-net" data-wire-kind="net" data-wire-style="wire" data-wire-net="GND"><line class="wire-wire" x1="100" y1="241" x2="744" y2="241"/><line class="wire-wire" x1="417.48" y1="111" x2="417.48" y2="241"/><line class="wire-wire" x1="100" y1="89" x2="100" y2="241"/><line class="wire-wire" x1="657" y1="111" x2="657" y2="241"/><line class="wire-wire" x1="744" y1="74" x2="744" y2="241"/></g></g>
<g class="wire-component" data-wire-kind="component" data-wire-id="BT1" data-wire-type="Battery" data-wire-symbol="battery" id="wire-component-BT1"><path class="wire-symbol" fill="none" d="M 36 89 L 61 89"/><path class="wire-symbol" fill="none" d="M 75 89 L 100 89"/><line class="wire-symbol" x1="61" y1="78" x2="61" y2="100"/><line class="wire-symbol" x1="65" y1="83" x2="65" y2="95"/><line class="wire-symbol" x1="71" y1="78" x2="71" y2="100"/><line class="wire-symbol" x1="75" y1="83" x2="75" y2="95"/><text class="wire-label" x="68" y="72" text-anchor="middle">BT1</text><text class="wire-label" x="68" y="59" text-anchor="middle">9V</text></g><g class="wire-component" data-wire-kind="component" data-wire-id="R1" data-wire-type="Resistor" data-wire-symbol="resistor" id="wire-component-R1"><path class="wire-symbol" fill="none" d="M 152 89 L 166 89 L 169 82 L 175 96 L 181 82 L 187 96 L 193 82 L 199 96 L 202 89 L 216 89"/><text class="wire-label" x="184" y="72" text-anchor="middle">R1</text><text class="wire-label" x="184" y="59" text-anchor="middle">1k</text></g><g class="wire-component" data-wire-kind="component" data-wire-id="R2" data-wire-type="Resistor" data-wire-symbol="resistor" id="wire-component-R2"><path class="wire-symbol" fill="none" d="M 268 89 L 282 89 L 285 82 L 291 96 L 297 82 L 303 96 L 309 82 L 315 96 L 318 89 L 332 89"/><text class="wire-label" x="300" y="72" text-anchor="middle">R2</text><text class="wire-label" x="300" y="59" text-anchor="middle">330ohm</text></g><g class="wire-component" data-wire-kind="component" data-wire-id="Q1" data-wire-type="NPNTransistor" data-wire-symbol="npn-transistor" id="wire-component-Q1"><circle class="wire-symbol-bg" cx="411" cy="89" r="17"/><line class="wire-symbol" x1="384" y1="89" x2="401" y2="89"/><line class="wire-symbol" x1="418.65" y1="80" x2="418.65" y2="98"/><line class="wire-symbol" x1="412.68" y1="83.31" x2="418.65" y2="84"/><line class="wire-symbol" x1="412.68" y1="94.69" x2="418.65" y2="94"/><line class="wire-symbol" x1="417.48" y1="67" x2="412.68" y2="83.31"/><line class="wire-symbol" x1="417.48" y1="111" x2="412.68" y2="94.69"/><polygon class="wire-symbol-fill" points="412.68,94.69 418.98,96.98 418.29,91.02"/><text class="wire-label" x="411" y="61" text-anchor="middle">Q1</text></g><g class="wire-component" data-wire-kind="component" data-wire-id="D1" data-wire-type="LED" data-wire-symbol="led" id="wire-component-D1"><path class="wire-symbol" fill="none" d="M 490 89 L 515 89"/><path class="wire-symbol" fill="none" d="M 529 89 L 554 89"/><polygon class="wire-symbol-fill" points="515,81 515,97 529,89" fill="#22c55e"/><line class="wire-symbol" x1="529" y1="81" x2="529" y2="97"/><path class="wire-symbol" fill="none" d="M 522 79 L 524.06 75.91"/><polygon class="wire-symbol-fill" points="526,73 525.89,77.13 522.23,74.69"/><path class="wire-symbol" fill="none" d="M 526 81 L 528.06 77.91"/><polygon class="wire-symbol-fill" points="530,75 529.89,79.13 526.23,76.69"/><text class="wire-label" x="522" y="72" text-anchor="middle">D1</text></g><g class="wire-component" data-wire-kind="component" data-wire-id="J1" data-wire-type="Header" data-wire-symbol="module" id="wire-component-J1"><rect class="wire-symbol-bg" x="606" y="67" width="68" height="44" rx="3"/><line class="wire-symbol" x1="623" y1="111" x2="623" y2="103"/><text class="wire-pin-label" x="623" y="100" text-anchor="middle">IN</text><line class="wire-symbol" x1="657" y1="111" x2="657" y2="103"/><text class="wire-pin-label" x="657" y="100" text-anchor="middle">GND</text><text class="wire-label" x="640" y="61" text-anchor="middle">J1</text></g><g class="wire-component" data-wire-kind="component" data-wire-id="G1" data-wire-type="GroundReference" data-wire-symbol="ground-reference" id="wire-component-G1"><path class="wire-symbol" fill="none" d="M 744 74 L 744 80.75"/><line class="wire-symbol" x1="756" y1="80.75" x2="732" y2="80.75"/><line class="wire-symbol" x1="752" y1="84.2" x2="736" y2="84.2"/><line class="wire-symbol" x1="748" y1="87.5" x2="740" y2="87.5"/></g>
<g class="wire-junctions"><circle class="wire-junction" cx="417.48" cy="241" r="2.8"/><circle class="wire-junction" cx="657" cy="241" r="2.8"/></g>
<g class="wire-labels"><text class="wire-annotation" x="184" y="36" text-anchor="middle">Base current limit</text></g>
</svg>