<svg xmlns="http://www.w3.org/2000/svg" class="wire-lang" viewBox="0 0 428 172" width="428" height="172" role="img" data-wire-lang-version="0.2.0">
<title>Potentiometer voltage divider</title>
<desc>A 10k potentiometer taps a fraction of the 5V rail; a rheostat trims the return leg.</desc>
<style>.wire-lang { background: #ffffff; }
.wire-wire { stroke: #1f2937; stroke-width: 1.5; fill: none; stroke-linecap: round; stroke-linejoin: round; }
.wire-symbol { stroke: #1f2937; stroke-width: 1.5; fill: none; stroke-linecap: round; stroke-linejoin: round; }
.wire-symbol-bg { stroke: #1f2937; stroke-width: 1.5; fill: #ffffff; }
.wire-symbol-fill { fill: #1f2937; stroke: none; }
.wire-junction { fill: #1f2937; }
.wire-label { fill: #111827; font: 600 11px var(--wire-font, system-ui, sans-serif); }
.wire-pin-label { fill: #374151; font: 9px var(--wire-font, system-ui, sans-serif); }
.wire-net-label { fill: #2563eb; font: 600 10px var(--wire-font, system-ui, sans-serif); }
.wire-annotation { fill: #6b7280; font: italic 10px var(--wire-font, system-ui, sans-serif); }</style>
<rect class="wire-background" x="0" y="0" width="428" height="172" fill="#ffffff"/>
<g class="wire-wires"><g class="wire-net" data-wire-kind="net" data-wire-style="wire" data-wire-net="VCC"><line class="wire-wire" x1="54" y1="62" x2="124" y2="62"/><line class="wire-wire" x1="54" y1="97" x2="54" y2="62"/><line class="wire-wire" x1="124" y1="112" x2="124" y2="62"/></g><g class="wire-net" data-wire-kind="net" data-wire-style="wire" data-wire-net="OUT"><line class="wire-wire" x1="156" y1="62" x2="240" y2="62"/><line class="wire-wire" x1="156" y1="88" x2="156" y2="62"/><line class="wire-wire" x1="240" y1="112" x2="240" y2="62"/></g><g class="wire-net" data-wire-kind="net" data-wire-style="wire" data-wire-net="GND"><line class="wire-wire" x1="188" y1="36" x2="374" y2="36"/><line class="wire-wire" x1="188" y1="112" x2="188" y2="36"/><line class="wire-wire" x1="304" y1="112" x2="304" y2="36"/><line class="wire-wire" x1="374" y1="97" x2="374" y2="36"/></g></g>
<g class="wire-component" data-wire-kind="component" data-wire-id="PWR1" data-wire-type="PowerFlag" data-wire-symbol="power-flag" id="wire-component-PWR1"><path class="wire-symbol" fill="none" d="M 54 119.5 L 54 100.5"/><polygon class="wire-symbol-fill" points="54,97 56.2,100.5 51.8,100.5"/><text class="wire-label" x="54" y="125.5" text-anchor="middle">5V</text></g><g class="wire-component" data-wire-kind="component" data-wire-id="RV1" data-wire-type="Potentiometer" data-wire-symbol="potentiometer" id="wire-component-RV1"><path class="wire-symbol" fill="none" d="M 124 112 L 138 112 L 141 105 L 147 119 L 153 105 L 159 119 L 165 105 L 171 119 L 174 112 L 188 112"/><path class="wire-symbol" fill="none" d="M 156 88 L 156 99.5"/><polygon class="wire-symbol-fill" points="156,103 153.8,99.5 158.2,99.5"/><text class="wire-label" x="156" y="82" text-anchor="middle">RV1</text><text class="wire-label" x="156" y="69" text-anchor="middle">10k</text></g><g class="wire-component" data-wire-kind="component" data-wire-id="RH1" data-wire-type="Rheostat" data-wire-symbol="rheostat" id="wire-component-RH1"><path class="wire-symbol" fill="none" d="M 240 112 L 254 112 L 257 105 L 263 119 L 269 105 L 275 119 L 281 105 L 287 119 L 290 112 L 304 112"/><path class="wire-symbol" fill="none" d="M 260 125 L 281.63 101.57"/><polygon class="wire-symbol-fill" points="284,99 283.24,103.06 280.01,100.08"/><text class="wire-label" x="272" y="95" text-anchor="middle">RH1</text><text class="wire-label" x="272" y="82" text-anchor="middle">4k7</text></g><g class="wire-component" data-wire-kind="component" data-wire-id="G1" data-wire-type="GroundReference" data-wire-symbol="ground-reference" id="wire-component-G1"><path class="wire-symbol" fill="none" d="M 374 97 L 374 103.75"/><line class="wire-symbol" x1="386" y1="103.75" x2="362" y2="103.75"/><line class="wire-symbol" x1="382" y1="107.2" x2="366" y2="107.2"/><line class="wire-symbol" x1="378" y1="110.5" x2="370" y2="110.5"/></g>
<g class="wire-junctions"><circle class="wire-junction" cx="304" cy="36" r="2.8"/></g>
<g class="wire-labels"><text class="wire-annotation" x="156" y="46" text-anchor="middle">Wiper output</text></g>
</svg>