<svg xmlns="http://www.w3.org/2000/svg" class="wire-lang" viewBox="0 0 700 266" width="700" height="266" role="img" data-wire-lang-version="0.1.0">
<title>Soil sensor input</title>
<desc>A local soil-sensor module wired to a header and a pull-down resistor.</desc>
<style>.wire-lang { background: #ffffff; }
.wire-wire { stroke: #1f2937; stroke-width: 1.5; fill: none; stroke-linecap: round; stroke-linejoin: round; }
.wire-symbol { stroke: #1f2937; stroke-width: 1.5; fill: none; stroke-linecap: round; stroke-linejoin: round; }
.wire-symbol-bg { stroke: #1f2937; stroke-width: 1.5; fill: #ffffff; }
.wire-symbol-fill { fill: #1f2937; stroke: none; }
.wire-junction { fill: #1f2937; }
.wire-label { fill: #111827; font: 600 11px var(--wire-font, system-ui, sans-serif); }
.wire-pin-label { fill: #374151; font: 9px var(--wire-font, system-ui, sans-serif); }
.wire-net-label { fill: #2563eb; font: 600 10px var(--wire-font, system-ui, sans-serif); }
.wire-annotation { fill: #6b7280; font: italic 10px var(--wire-font, system-ui, sans-serif); }
.wire-lang { --wire-font: ui-monospace, SFMono-Regular, Menlo, monospace; }
.wire-rail-label { fill: #1f2937; font: 700 11px var(--wire-font, system-ui, sans-serif); }
.wire-bus-label { fill: #1f2937; font: 700 10px var(--wire-font, system-ui, sans-serif); }</style>
<rect class="wire-background" x="0" y="0" width="700" height="266" fill="#ffffff"/>
<g class="wire-wires"><g class="wire-net" data-wire-kind="net" data-wire-style="wire" data-wire-net="VCC"><line class="wire-wire" x1="50" y1="50" x2="572" y2="50" style="stroke:#c0392b;stroke-width:3"/><line class="wire-wire" x1="571" y1="158" x2="571" y2="168" style="stroke:#c0392b;stroke-width:3"/><line class="wire-wire" x1="571" y1="168" x2="544" y2="168" style="stroke:#c0392b;stroke-width:3"/><line class="wire-wire" x1="544" y1="168" x2="544" y2="50" style="stroke:#c0392b;stroke-width:3"/><line class="wire-wire" x1="105" y1="158" x2="105" y2="168" style="stroke:#c0392b;stroke-width:3"/><line class="wire-wire" x1="105" y1="168" x2="78" y2="168" style="stroke:#c0392b;stroke-width:3"/><line class="wire-wire" x1="78" y1="168" x2="78" y2="50" style="stroke:#c0392b;stroke-width:3"/><line class="wire-wire" x1="340" y1="136" x2="340" y2="50" style="stroke:#c0392b;stroke-width:3"/></g><g class="wire-net" data-wire-kind="net" data-wire-style="wire" data-wire-net="GND"><line class="wire-wire" x1="111" y1="222" x2="633" y2="222" style="stroke:#1f2937;stroke-width:3"/><line class="wire-wire" x1="605" y1="158" x2="605" y2="222" style="stroke:#1f2937;stroke-width:3"/><line class="wire-wire" x1="139" y1="158" x2="139" y2="222" style="stroke:#1f2937;stroke-width:3"/></g><g class="wire-net" data-wire-kind="net" data-wire-style="wire" data-wire-net="SENSOR"><path class="wire-wire" fill="none" d="M 173 184 L 601 184 A 4 4 0 0 0 609 184 L 639 184" style="stroke:#475569;stroke-width:1.4"/><line class="wire-wire" x1="173" y1="184" x2="173" y2="158" style="stroke:#475569;stroke-width:1.4"/><line class="wire-wire" x1="404" y1="184" x2="404" y2="136" style="stroke:#475569;stroke-width:1.4"/><line class="wire-wire" x1="639" y1="184" x2="639" y2="158" style="stroke:#475569;stroke-width:1.4"/></g></g>
<g class="wire-component" data-wire-kind="component" data-wire-id="S1" data-wire-type="SoilSensor" data-wire-symbol="module" id="wire-component-S1"><rect class="wire-symbol-bg" x="88" y="114" width="102" height="44" rx="3"/><line class="wire-symbol" x1="105" y1="158" x2="105" y2="150"/><text class="wire-pin-label" x="105" y="147" text-anchor="middle">VCC</text><line class="wire-symbol" x1="139" y1="158" x2="139" y2="150"/><text class="wire-pin-label" x="139" y="147" text-anchor="middle">GND</text><line class="wire-symbol" x1="173" y1="158" x2="173" y2="150"/><text class="wire-pin-label" x="173" y="147" text-anchor="middle">AOUT</text><text class="wire-label" x="139" y="108" text-anchor="middle">S1</text></g><g class="wire-component" data-wire-kind="component" data-wire-id="R1" data-wire-type="Resistor" data-wire-symbol="resistor" id="wire-component-R1"><path class="wire-symbol" fill="none" d="M 340 136 L 354 136 L 357 129 L 363 143 L 369 129 L 375 143 L 381 129 L 387 143 L 390 136 L 404 136"/><text class="wire-label" x="372" y="119" text-anchor="middle">R1</text><text class="wire-label" x="372" y="106" text-anchor="middle">10k</text></g><g class="wire-component" data-wire-kind="component" data-wire-id="J1" data-wire-type="Header" data-wire-symbol="module" id="wire-component-J1"><rect class="wire-symbol-bg" x="554" y="114" width="102" height="44" rx="3"/><line class="wire-symbol" x1="571" y1="158" x2="571" y2="150"/><text class="wire-pin-label" x="571" y="147" text-anchor="middle">VCC</text><line class="wire-symbol" x1="605" y1="158" x2="605" y2="150"/><text class="wire-pin-label" x="605" y="147" text-anchor="middle">GND</text><line class="wire-symbol" x1="639" y1="158" x2="639" y2="150"/><text class="wire-pin-label" x="639" y="147" text-anchor="middle">A0</text><text class="wire-label" x="605" y="108" text-anchor="middle">J1</text></g>
<g class="wire-junctions"><circle class="wire-junction" cx="544" cy="50" r="2.8"/><circle class="wire-junction" cx="78" cy="50" r="2.8"/><circle class="wire-junction" cx="340" cy="50" r="2.8"/><circle class="wire-junction" cx="605" cy="222" r="2.8"/><circle class="wire-junction" cx="139" cy="222" r="2.8"/><circle class="wire-junction" cx="404" cy="184" r="2.8"/></g>
<g class="wire-labels"><text class="wire-rail-label" x="44" y="44" text-anchor="start" style="fill:#c0392b">VCC</text><text class="wire-rail-label" x="105" y="216" text-anchor="start" style="fill:#1f2937">GND</text></g>
</svg>